<?xml version="1.0" encoding="UTF-8"?>
<svg width="123px" height="22px" viewBox="0 0 123 22" version="1.1" xmlns="http://www.w3.org/2000/svg" xmlns:xlink="http://www.w3.org/1999/xlink">
    <title>DA71A636-F2E5-4234-B53F-74EE69A0C4F7</title>
    <g id="✪-01-Вход" stroke="none" stroke-width="1" fill="none" fill-rule="evenodd">
        <g id="SCR-01-04-Контакты.-НА" transform="translate(-119.000000, -46.000000)" fill="#FFFFFF" fill-rule="nonzero">
            <g id="Toolbar-contents" transform="translate(0.000000, 24.000000)">
                <g id="Logo-/-Text" transform="translate(119.000000, 22.000000)">
                    <path d="M15.3741463,10.4163072 C15.3126829,12.2799827 15.0668293,12.6553063 14,12.6553063 L14,15 L14.3973171,15 C17.0578049,15 17.6987805,13.649698 17.7953659,10.6471096 L17.9029268,7.32528041 L20.3965854,7.32528041 L20.3965854,15 L23,15 L23,5 L15.5519512,5 L15.3719512,10.4184642 L15.3741463,10.4163072 Z M28.7842906,8.03710095 L26.9883294,8.03710095 L26.9883294,5 L24.5,5 L24.5,15 L28.819958,15 C31.5327826,15 32.5,13.1880932 32.5,11.4818809 C32.5,9.27955134 31.1530291,8.03494392 28.7842906,8.03494392 M28.5954629,12.7955134 L26.9883294,12.7955134 L26.9883294,10.2545298 L28.5954629,10.2545298 C29.4598741,10.2545298 29.9781012,10.6449525 29.9781012,11.4797239 C29.9781012,12.3856773 29.4766588,12.7933563 28.5954629,12.7933563 M40.7414515,4.72682458 L40.7414515,1 L38.2585485,1 L38.2585485,4.72466033 C35.4134682,4.97354815 33.5,7.05987736 33.5,9.96429001 C33.5,12.8687027 35.4134682,14.9723458 38.2585485,15.2212336 L38.2585485,19 L40.7414515,19 L40.7414515,15.2212336 C43.5865318,14.9896597 45.5,12.8860166 45.5,9.96429001 C45.5,7.04256342 43.5865318,4.95623422 40.7414515,4.72466033 M38.2585485,12.7994469 C36.8789253,12.6025009 36.0163992,11.5333654 36.0163992,9.96645425 C36.0163992,8.3995431 36.8789253,7.32824336 38.2585485,7.13346158 L38.2585485,12.8016112 L38.2585485,12.7994469 Z M40.7414515,12.7994469 L40.7414515,7.13129734 C42.1210747,7.32824336 42.9836008,8.39737886 42.9836008,9.96429001 C42.9836008,11.5312012 42.1210747,12.6025009 40.7414515,12.7972827 M54.8861751,11.5770863 L54.8861751,8.11860982 C54.8861751,5.59143261 53.3827189,4 50.8569124,4 C48.331106,4 46.8608295,5.68478481 46.740553,7.44069509 L49.2331797,7.44069509 C49.3182028,7.05617296 49.6935484,6.39826228 50.8548387,6.39826228 C51.8108295,6.39826228 52.4267281,6.87391392 52.4267281,8.11860982 L49.983871,8.11860982 C47.7981567,8.11860982 46.5,9.34552435 46.5,11.3948272 C46.5,13.4441301 47.9205069,15 49.9672811,15 C51.4686636,15 52.3023041,14.2398464 52.6652074,13.6641746 C52.9887097,14.3598707 53.7062212,14.7443928 54.6456221,14.7443928 L55.5,14.7443928 L55.5,12.3639119 C55.0562212,12.3639119 54.8861751,12.1438674 54.8861751,11.5770863 M52.4267281,10.8991715 C52.4267281,12.0883007 51.6407834,12.7662154 50.6163594,12.7662154 C49.7288018,12.7662154 49.0278802,12.417256 49.0278802,11.3926046 C49.0278802,10.3679531 49.7951613,10.2212568 50.4629032,10.2212568 L52.4267281,10.2212568 L52.4267281,10.8991715 Z M0,19.5 L13,19.5 L13,22 L0,22 Z M3.76298862,11.9596454 L9.13194788,11.9596454 L10.0324922,15 L13,15 L8.99043378,2.21262611 C8.60234207,0.976765515 8.15635824,0 6.62543295,0 C5.09450767,0 4.61850569,0.972179762 4.21111661,2.21262611 L0,15 L2.78954313,15 L3.76084447,11.9596454 L3.76298862,11.9596454 Z M6.4817747,3.32925711 L6.55253175,3.32925711 L8.35362032,9.39162336 L4.57562263,9.39162336 L6.4817747,3.32925711 Z M88.2708143,9.61239919 C88.9995425,9.37530242 89.7488564,8.6640121 89.7488564,7.49969758 C89.7488564,5.6452621 88.3284538,4.5 85.7573193,4.5 C82.9370997,4.5 81.4569991,6.19778226 81.189387,7.81512097 L83.5896615,7.81512097 C83.9149131,7.08477823 84.5489478,6.49415323 85.7573193,6.49415323 C86.7371912,6.49415323 87.3321134,6.88790323 87.3321134,7.65846774 C87.3321134,8.42903226 86.7948307,8.78256048 86.0084629,8.78256048 L84.5510064,8.78256048 L84.5510064,10.6179435 L86.086688,10.6179435 C87.0274474,10.6179435 87.5070906,10.9926411 87.5070906,11.7039315 C87.5070906,12.5909274 86.8360018,13.0058468 85.5885178,13.0058468 C84.2648673,13.0058468 83.6123056,12.2373992 83.3426349,11.5070565 L81,11.5070565 C81.1729186,13.2048387 82.6118481,15 85.5864593,15 C88.3119854,15 90,13.7573589 90,11.7632056 C90,10.5396169 89.1745197,9.84949597 88.2728728,9.61239919 M97.8381546,8.7295082 L94.1618454,8.7295082 L94.1618454,5 L91.5,5 L91.5,15 L94.1618454,15 L94.1618454,11.0569456 L97.8381546,11.0569456 L97.8381546,15 L100.5,15 L100.5,5 L97.8381546,5 L97.8381546,8.7295082 L97.8381546,8.7295082 Z M65.342067,6.38561485 L62.584737,6.38561485 L62.584737,3.55096674 L68.9727594,3.55096674 L68.9727594,1 L60,1 L60,15 L65.342067,15 C68.305261,15 70,13.4668213 70,10.6494973 C70,7.99242073 68.305261,6.38778036 65.342067,6.38778036 M65.2214598,12.4685228 L62.584737,12.4685228 L62.584737,8.83047177 L65.2214598,8.83047177 C66.591807,8.83047177 67.3611978,9.49095128 67.3611978,10.6494973 C67.3611978,11.8080433 66.5897276,12.4685228 65.2214598,12.4685228 M73.6618454,11.1065574 L73.6618454,5 L71,5 L71,15 L73.6618454,15 L73.6618454,14.9956859 L77.3381546,8.88912856 L77.3381546,15 L80,15 L80,5 L77.3381546,5 L73.6618454,11.1065574 L73.6618454,11.1065574 Z M106.990287,4 C104.031081,4 102,6.25322581 102,9.5 C102,12.7467742 104.03324,15 106.990287,15 C109.28038,15 111.007123,13.6405242 111.684869,11.5558468 L108.90913,11.5558468 C108.511979,12.2522177 107.866609,12.6846774 106.990287,12.6846774 C105.541981,12.6846774 104.728254,11.484879 104.611699,9.90141129 L111.984891,9.90141129 C111.991366,9.76834677 112,9.6375 112,9.5 C112,6.25322581 109.96676,4 106.988129,4 M104.767106,8.17600806 C105.084395,7.06491935 105.833369,6.31532258 106.988129,6.31532258 C108.142888,6.31532258 108.891863,7.06491935 109.209152,8.17600806 L104.767106,8.17600806 Z M115.677656,9.5 C115.677656,7.72137097 116.528626,6.31532258 118.150368,6.31532258 C119.054801,6.31532258 119.720873,6.74778226 120.130764,7.44415323 L123,7.44415323 C122.304968,5.34395161 120.520606,4 118.150368,4 C115.096235,4 113,6.25322581 113,9.5 C113,12.7467742 115.098463,15 118.150368,15 C120.513923,15 122.296057,13.6405242 122.995545,11.5558468 L120.130764,11.5558468 C119.720873,12.2522177 119.054801,12.6846774 118.150368,12.6846774 C116.530853,12.6846774 115.677656,11.278629 115.677656,9.5 Z" id="alfa_business_navbar_logo"></path>
                </g>
            </g>
        </g>
    </g>
</svg>