<svg xmlns="http://www.w3.org/2000/svg" width="32" height="32" viewBox="0 0 32 32">
    <path fill="#FFF" fill-rule="nonzero" d="M20.334 16.667V6.666h-15V5H22v11.666h-1.666zm-1.112-7.861v9.36c0 .556-.528 1.028-1.139 1.028H3.14C2.528 19.167 2 18.722 2 18.14V8.806c0-.556.528-1.028 1.167-1.028h14.916c.611 0 1.14.444 1.14 1.028zm-1.944 2.666v-.083c-.14.055-.278.083-.417.083-.694 0-1.25-.555-1.25-1.25 0-.139.028-.389.083-.5H5.528c.055.14.083.361.083.5 0 .695-.555 1.25-1.25 1.25-.139 0-.278-.028-.417-.083v4.278c.14-.056.278-.084.417-.084.695 0 1.25.556 1.25 1.25 0 .14-.028.278-.083.417h10.166c-.055-.139-.083-.278-.083-.417 0-.694.556-1.25 1.25-1.25.139 0 .278.028.417.084v-4.195zM14.778 16v.389H6.444V16c0-.694-.555-1.25-1.25-1.25h-.416v-2.472h.416c.695 0 1.25-.556 1.25-1.25v-.472h8.334v.5c0 .694.555 1.25 1.25 1.25h.416v2.472h-.416c-.695-.028-1.25.528-1.25 1.222zm-4.167-4.056c-.917 0-1.667.75-1.667 1.667s.75 1.667 1.667 1.667 1.667-.75 1.667-1.667-.75-1.667-1.667-1.667z" opacity=".5"/>
</svg>
