<svg width="32" height="32" viewBox="0 0 32 32" xmlns="http://www.w3.org/2000/svg">
    <path d="m30.586 21.103-.957.83-2.709 1.855-2.677 1.759-1.912 1.215-2.55 1.407S17.645 29 17.135 29c-.542 0-1.498-.576-1.498-.576l-1.912-1.087s-2.486-1.502-2.932-1.758c-.447-.256-1.566-.576-2.104-.576s-.986.15-1.243.224c-.258.075-.765.32-1.116.544-.35.224-1.176.959-1.434.959s-1.864-1.674-2.219-2.064c-.354-.39-1.701-2.316-1.765-2.732-.032-.416.032-.608.287-.8.223-.191 3.825-2.142 5.004-2.685 1.18-.544 3.028-1.087 4.175-1.087 1.148 0 2.231.671 2.231.671s1.976 1.63 2.423 1.919c.478.287 1.402.703 2.263.927.86.224 2.358.352 2.836.383.478.032.733.192.86.48.097.32.128.64 0 .96-.127.351-.637.51-.796.543-.16.064-1.912.16-2.55.128-.67 0-2.805-.256-3.091-.352-.32-.064-1.435-.735-1.594-.8-.16-.063-.478-.031-.478-.031s-.383.32-.319.64c.064.319.51.51 1.498.862.956.352 2.773.736 4.207.736 1.435 0 3.379-.544 3.379-.544l3.219-1.63 3.251-2.366s1.249-.827 1.631-.86c.383-.031.919-.132 1.238.252.318.384.287.8.318 1.183 0 .384-.318.64-.318.64zm-5.737-.256s-1.123.679-1.534.787c-.41.108-.668.108-.872.044-.204-.064-.434-.313-.495-.453s-.094-.496 0-.762c.095-.266.518-.598.67-.703.15-.105 1.752-1.311 2.04-1.471.254-.16.627-.288 1.01-.256.382.032.615.288.679.448.232.423.14.982 0 1.183-.142.2-1.498 1.183-1.498 1.183zm-2.805-10.749h-.192a4.957 4.957 0 0 0-3.378-3.357v-.192c0-1.95 1.594-3.549 3.57-3.549 1.976 0 3.57 1.599 3.57 3.549s-1.594 3.55-3.57 3.55zm-4.24 8.319c.256-.16 2.072-1.055 2.423-1.151.319-.096 1.753-.032 2.008.192.255.223.223.799.064 1.023-.16.224-1.116.863-1.307.959-.191.096-.956.512-1.403.608-.414.095-1.243-.032-1.243-.032s-1.147-.096-1.402-.288c-.223-.192.606-1.151.86-1.311zm2.901-6.976c0 1.95-1.594 3.549-3.57 3.549-1.976 0-3.57-1.599-3.57-3.55 0-1.95 1.594-3.548 3.57-3.548 1.976 0 3.57 1.599 3.57 3.549z" fill="#FFF" fill-rule="nonzero"/>
</svg>
