<svg width="24" height="24" viewBox="0 0 24 24" xmlns="http://www.w3.org/2000/svg">
    <path d="M23.883 13.04a.534.534 0 0 1-.769.08l-.036-.04-1.977-1.92c-.842.96-1.94 1.8-3.22 2.4l1.207 2.12.037.04c.146.28.073.64-.183.84-.256.16-.586.08-.769-.2 0 0 0-.04-.036-.04L16.819 14c-1.281.48-2.745.76-4.282.8v2.6c0 .32-.256.6-.55.6-.292 0-.548-.28-.548-.6v-2.6a13.46 13.46 0 0 1-4.282-.8l-1.282 2.28s0 .04-.036.04a.549.549 0 0 1-.769.2c-.256-.16-.33-.56-.183-.84l.037-.04 1.208-2.12a9.856 9.856 0 0 1-3.221-2.4L.934 13.04l-.036.04c-.22.2-.586.2-.769-.08-.183-.24-.183-.64.073-.84 0 0 .037 0 .037-.04l1.976-1.92c-.622-1.04-.988-2.16-.988-3.4h.037c-.037-.08-.037-.12-.037-.2 0-.32.22-.6.55-.6.329 0 .548.28.548.6 0 .08 0 .12-.036.2h.036c0 3.76 4.246 6.8 9.516 6.8h.366c5.27 0 9.516-3.04 9.516-6.8h.037c-.037-.08-.037-.12-.037-.2 0-.32.257-.6.55-.6.292 0 .548.28.548.6 0 .08 0 .12-.036.2h.036c0 1.24-.366 2.36-1.024 3.4l1.976 1.96s.037 0 .037.04c.22.2.256.56.073.84z" fill="#FFF" fill-rule="nonzero" opacity=".5"/>
</svg>
