<svg width="32" height="32" viewBox="0 0 32 32" xmlns="http://www.w3.org/2000/svg">
    <path d="M8.5 5a.5.5 0 0 1 .5.5V6a2 2 0 0 0 2 2h10a2 2 0 0 0 2-2v-.5a.5.5 0 0 1 .5-.5H25a2 2 0 0 1 2 2v21a2 2 0 0 1-2 2H7a2 2 0 0 1-2-2V7a2 2 0 0 1 2-2h1.5zm10.75 18h-2a1 1 0 0 0 0 2h2a1 1 0 0 0 0-2zm-5.305-2.697a1.045 1.045 0 0 0-1.472 0l-2.21 2.197-.736-.732a1.045 1.045 0 0 0-1.472 0 1.032 1.032 0 0 0 0 1.464l1.472 1.465a1.045 1.045 0 0 0 1.473 0l2.945-2.93a1.032 1.032 0 0 0 0-1.464zM23.25 20h-6a1 1 0 0 0 0 2h6a1 1 0 0 0 0-2zm-4-4h-2a1 1 0 0 0 0 2h2a1 1 0 0 0 0-2zm-5.305-2.697a1.045 1.045 0 0 0-1.472 0l-2.21 2.197-.736-.732a1.045 1.045 0 0 0-1.472 0 1.032 1.032 0 0 0 0 1.464l1.472 1.465a1.045 1.045 0 0 0 1.473 0l2.945-2.93a1.032 1.032 0 0 0 0-1.464zM23.25 13h-6a1 1 0 0 0 0 2h6a1 1 0 0 0 0-2zM12 6a1 1 0 0 1 0-2V3a1 1 0 0 1 1-1h6a1 1 0 0 1 1 1v1a1 1 0 0 1 0 2h-8z" fill="#FFF" fill-rule="nonzero"/>
</svg>
