<svg width="24" height="24" viewBox="0 0 24 24" xmlns="http://www.w3.org/2000/svg">
    <path d="M12 20c-6.64 0-12-3.6-12-8s5.36-8 12-8 12 3.6 12 8-5.36 8-12 8zm0-14.8a5.19 5.19 0 0 0-5.2 5.2c0 2.88 2.32 5.2 5.2 5.2 2.88 0 5.2-2.32 5.2-5.2 0-2.88-2.32-5.2-5.2-5.2zm4.44.6c1.2 1.16 1.96 2.8 1.96 4.6 0 3.52-2.88 6.4-6.4 6.4-3.52 0-6.4-2.88-6.4-6.4 0-1.8.76-3.44 1.96-4.6C3.8 6.88 1.2 9.24 1.2 12c0 3.76 4.84 6.8 10.8 6.8 5.96 0 10.8-3.04 10.8-6.8 0-2.76-2.6-5.12-6.36-6.2z" fill="#FFF" fill-rule="evenodd" fill-opacity=".5"/>
</svg>
