<svg width="24" height="24" viewBox="0 0 24 24" xmlns="http://www.w3.org/2000/svg">
    <path d="M9 7.5c4.149 0 7.5 3.351 7.5 7.5s-3.351 7.5-7.5 7.5A7.491 7.491 0 0 1 1.5 15c0-4.149 3.351-7.5 7.5-7.5zm.034 3c-.397 0-.692.241-.692.65v.192l-.182.03c-1.254.24-2.05 1.055-2.05 2.169 0 1.082.714 1.81 2.018 2.085l1.067.233c.677.152.91.337.91.645 0 .433-.36.693-1.06.693-.56 0-1.015-.197-1.442-.632-.3-.284-.506-.382-.795-.382-.466 0-.808.306-.808.759 0 .366.212.729.584 1.034.409.353 1.021.59 1.726.683v.187c0 .409.297.654.698.654.396 0 .692-.246.692-.654v-.195c1.412-.215 2.3-1.071 2.3-2.276 0-1.103-.713-1.785-2.119-2.076l-1.066-.228c-.564-.118-.804-.325-.804-.625 0-.376.356-.643.944-.643.517 0 .863.159 1.276.594.278.275.518.39.835.39.433 0 .766-.3.766-.714 0-.344-.199-.701-.542-1.02-.386-.345-.933-.582-1.558-.69v-.214c0-.405-.298-.649-.698-.649zM15 1.5c4.149 0 7.5 3.351 7.5 7.5a7.492 7.492 0 0 1-4.545 6.898 8.99 8.99 0 0 0-9.853-9.854A7.494 7.494 0 0 1 15 1.5z" fill="#FFF" fill-rule="nonzero" opacity=".5"/>
</svg>
