<svg width="24" height="24" viewBox="0 0 24 24" xmlns="http://www.w3.org/2000/svg">
    <path d="M4 20h16a1 1 0 0 1 0 2H4a1 1 0 0 1 0-2zm8.547-17.837 9.049 5.919a.5.5 0 0 1-.274.918H2.678a.5.5 0 0 1-.274-.918l9.049-5.92a1 1 0 0 1 1.094 0zM4.895 10.5h1.21c.233 0 .434.16.487.387C6.864 12.09 7 13.296 7 14.5c0 1.204-.136 2.409-.408 3.613a.501.501 0 0 1-.487.387h-1.21a.501.501 0 0 1-.487-.387A16.357 16.357 0 0 1 4 14.5c0-1.204.136-2.409.408-3.613a.501.501 0 0 1 .487-.387zm13 0h1.21c.233 0 .434.16.487.387.272 1.204.408 2.409.408 3.613 0 1.204-.136 2.409-.408 3.613a.501.501 0 0 1-.487.387h-1.21a.501.501 0 0 1-.487-.387A16.357 16.357 0 0 1 17 14.5c0-1.204.136-2.409.408-3.613a.501.501 0 0 1 .487-.387zm-6.5 0h1.21c.233 0 .434.16.487.387.272 1.204.408 2.409.408 3.613 0 1.204-.136 2.409-.408 3.613a.501.501 0 0 1-.487.387h-1.21a.501.501 0 0 1-.487-.387A16.357 16.357 0 0 1 10.5 14.5c0-1.204.136-2.409.408-3.613a.501.501 0 0 1 .487-.387z" fill="#FFF" fill-rule="nonzero" opacity=".5"/>
</svg>
