<svg width="32" height="32" viewBox="0 0 32 32" xmlns="http://www.w3.org/2000/svg">
    <path d="M19.17 2c.53 0 1.04.21 1.42.59l5.82 6c.38.37.59.88.59 1.41v18c0 1.1-.9 2-2 2H6.99C5.89 30 5 29.1 5 28v-4.008l.854 1.09a2.889 2.889 0 0 0 1.984.82c.764 0 1.432-.276 1.983-.82l7.908-7.81c.5-.495.975-1.059 1.052-1.825.084-.843-.164-1.573-.74-2.169l-2.102-2.077c-1.1-1.086-2.96-1.086-4.061.001l-.282.278c-.494.489-.862.66-1.026.701l-.01-.018c-.02-1.527-.63-2.991-1.68-4.03C7.742 7.012 6.492 6.463 5 6.482V4c0-1.1.9-2 2-2zM19 4v4.91c0 .6.49 1.09 1.09 1.09H25l-6-6zM2.128 9.44a3.89 3.89 0 0 1 5.453 0c.752.744 1.128 1.766 1.128 2.789v.093c0 .279.282 1.208 1.128 1.58.846.372 1.974 0 3.102-1.115l.282-.28a1.031 1.031 0 0 1 1.41 0l2.069 2.046c.254.264.246.515.228.7-.02.196-.322.508-.51.694L8.52 23.756a.859.859 0 0 1-.658.278c-.188 0-.47-.093-.658-.278L5.136 21.71c-.188-.186-.281-.372-.281-.651 0-.186.093-.465.281-.65l.282-.28c1.129-1.115 1.599-2.23 1.129-3.067-.282-.651-1.035-1.116-1.505-1.116h-.187a3.787 3.787 0 0 1-2.727-1.115A3.702 3.702 0 0 1 1 12.136c0-1.022.376-1.952 1.128-2.696zm12.128 5.485a.535.535 0 0 0-.753 0l-5.734 5.67a.524.524 0 0 0 0 .744.535.535 0 0 0 .752 0l5.735-5.67a.524.524 0 0 0 0-.744zm-7.991-4.183a1.944 1.944 0 0 0-2.727 0c-.376.279-.564.836-.564 1.3 0 .466.188.93.564 1.302.47.372.94.558 1.504.558h.094c1.129 0 2.539.837 3.29 2.231l.283.837 1.128-1.116-.846-.279c-1.504-.743-2.35-2.416-2.162-3.532 0-.465-.189-.93-.564-1.301z" fill="#FFF" fill-rule="nonzero"/>
</svg>
